<svg width="27" height="27" viewBox="0 0 27 27" fill="none" xmlns="http://www.w3.org/2000/svg">
    <path d="M1.566 19.38V2.97c0-.345.147-.673.44-.984.292-.312.616-.467.972-.467h14.85c.364 0 .693.15.985.453.293.302.44.635.44.998v10.267c0 .356-.147.686-.44.992-.292.307-.62.46-.984.46H6.257l-4.69 4.69zm6.4 1.49c-.357 0-.684-.156-.98-.467-.295-.311-.443-.64-.443-.984v-3.043H20.94v-9.88h3.098c.345 0 .664.155.957.467.292.311.439.649.439 1.012v17.478L20.85 20.87H7.967zm9.058-17.107H3.81V14.14l1.68-1.68h11.534V3.763z" fill="#3F3F3F"/>
</svg>
