<svg width="33" height="18" viewBox="0 0 33 18" fill="none" xmlns="http://www.w3.org/2000/svg">
    <path d="M5.726 11.182c-.583 0-1.088-.216-1.513-.647A2.112 2.112 0 0 1 3.575 9c0-.616.213-1.134.638-1.553.425-.42.93-.629 1.513-.629.583 0 1.094.21 1.531.629.438.419.657.924.657 1.516 0 .616-.219 1.14-.657 1.572-.437.431-.948.647-1.53.647zm10.792 0a2.095 2.095 0 0 1-1.55-.647A2.112 2.112 0 0 1 14.332 9c0-.616.212-1.134.638-1.553.425-.42.93-.629 1.513-.629.607 0 1.118.21 1.531.629.413.419.62.924.62 1.516 0 .616-.207 1.14-.62 1.572a1.995 1.995 0 0 1-1.495.647zm10.72 0a2.095 2.095 0 0 1-1.55-.647A2.112 2.112 0 0 1 25.05 9c0-.616.212-1.134.638-1.553.425-.42.942-.629 1.55-.629.607 0 1.124.21 1.549.629.425.419.638.924.638 1.516 0 .616-.213 1.14-.638 1.572a2.095 2.095 0 0 1-1.55.647z" fill="#5F5F5F"/>
</svg>
