<svg width="27" height="27" viewBox="0 0 27 27" fill="none" xmlns="http://www.w3.org/2000/svg">
    <path d="M20.446 25.116c-.985 0-1.827-.35-2.525-1.05a3.448 3.448 0 0 1-.877-3.542L9.11 15.908c-.313.35-.693.632-1.141.845-.448.212-.908.319-1.38.319-.995 0-1.84-.35-2.536-1.047a3.447 3.447 0 0 1-1.044-2.526c0-.985.348-1.827 1.044-2.524.696-.698 1.541-1.047 2.535-1.047.473 0 .923.092 1.352.277.43.185.82.452 1.17.803l7.934-4.56a2.294 2.294 0 0 1-.127-.488 3.34 3.34 0 0 1-.042-.51c0-.98.35-1.82 1.047-2.519a3.442 3.442 0 0 1 2.526-1.047c.985 0 1.827.35 2.524 1.048a3.443 3.443 0 0 1 1.047 2.525c0 .986-.348 1.827-1.044 2.525-.696.697-1.541 1.046-2.535 1.046-.479 0-.937-.073-1.373-.218a2.453 2.453 0 0 1-1.105-.745l-7.95 4.359c.049.16.084.347.107.56.023.213.034.387.034.523 0 .135-.011.28-.034.437-.023.156-.058.32-.107.491l7.95 4.472c.3-.295.657-.524 1.068-.689a3.774 3.774 0 0 1 1.41-.246c.994 0 1.839.349 2.535 1.047a3.448 3.448 0 0 1 1.044 2.526c0 .985-.35 1.827-1.048 2.524a3.444 3.444 0 0 1-2.525 1.047zm.002-18.141c.43 0 .791-.146 1.082-.437.29-.291.436-.652.436-1.083 0-.43-.146-.79-.437-1.082a1.472 1.472 0 0 0-1.083-.436c-.43 0-.791.146-1.082.437-.29.292-.436.653-.436 1.083 0 .43.146.791.437 1.082.291.29.652.436 1.083.436zM6.582 15.019c.43 0 .791-.146 1.082-.437.29-.292.436-.652.436-1.083 0-.43-.146-.791-.437-1.082a1.472 1.472 0 0 0-1.083-.436c-.43 0-.79.146-1.082.437-.29.292-.436.652-.436 1.083 0 .43.146.791.437 1.082.292.29.653.436 1.083.436zm13.866 8.043c.43 0 .791-.145 1.082-.436.29-.292.436-.653.436-1.083 0-.43-.146-.791-.437-1.082a1.472 1.472 0 0 0-1.083-.436c-.43 0-.791.146-1.082.437-.29.291-.436.652-.436 1.083 0 .43.146.79.437 1.082.291.29.652.436 1.083.436z" fill="#3F3F3F"/>
</svg>
