<svg width="27" height="27" viewBox="0 0 27 27" fill="none" xmlns="http://www.w3.org/2000/svg">
    <path d="M12.386 18.076h2.228v-4.912L16.6 15.15l1.579-1.563L13.5 8.924l-4.679 4.663 1.58 1.563 1.985-1.986v4.912zm1.116 7.071c-1.602 0-3.112-.303-4.528-.91a11.734 11.734 0 0 1-3.712-2.5 11.741 11.741 0 0 1-2.498-3.709 11.351 11.351 0 0 1-.911-4.526c0-1.621.303-3.14.91-4.556A11.598 11.598 0 0 1 5.26 5.247a11.92 11.92 0 0 1 3.708-2.492 11.286 11.286 0 0 1 4.528-.918c1.623 0 3.143.305 4.56.917a11.767 11.767 0 0 1 3.7 2.489 11.759 11.759 0 0 1 2.49 3.697c.612 1.417.917 2.937.917 4.56 0 1.604-.306 3.114-.918 4.53a11.924 11.924 0 0 1-2.492 3.71 11.6 11.6 0 0 1-3.697 2.496c-1.414.608-2.933.911-4.554.911zM13.5 22.92c2.62 0 4.845-.916 6.675-2.748 1.83-1.833 2.744-4.056 2.744-6.671 0-2.62-.915-4.845-2.744-6.675-1.83-1.83-4.058-2.744-6.683-2.744-2.607 0-4.827.914-6.66 2.744-1.835 1.83-2.751 4.058-2.751 6.683 0 2.607.916 4.827 2.748 6.66 1.833 1.835 4.056 2.751 6.671 2.751z" fill="#FB9202"/>
</svg>
